<svg xmlns="http://www.w3.org/2000/svg" width="50" height="20" viewBox="0 0 80 40" fill="none">
<path d="M13.2632 0C16.9342 0.0201207 20.7237 1.34809 24.6184 4.00402L24.8026 4.12475L24.8684 4.40644V4.42656C25.1842 5.89537 25.4605 7.36418 25.6842 8.833C25.9079 10.3018 26.0921 11.7706 26.2237 13.2394C26.4079 15.171 26.5132 17.0825 26.5395 19.0141V21.2676C26.4605 26.1368 25.9079 31.006 24.8684 35.8753L24.8026 36.1569L24.6184 36.2777C20.9342 38.7726 17.2368 40 13.5526 40C13.4605 40 13.3684 40 13.2632 40V38.6318C13.3684 38.6318 13.4605 38.6318 13.5526 38.6318C17.0526 38.6318 20.5658 37.4849 24.0789 35.1509C25.6053 27.9074 26.0263 20.664 25.3421 13.4205C25.2105 12.0121 25.0263 10.5634 24.8026 9.13481C24.6053 7.80684 24.3553 6.45875 24.0789 5.13078C20.3553 2.63581 16.75 1.38833 13.2632 1.36821V0ZM2.46053 4.02414C5.9079 1.32797 9.48684 0 13.1842 0C13.2105 0 13.2368 0 13.2632 0V1.36821C13.2368 1.36821 13.2105 1.36821 13.1842 1.36821C9.67105 1.36821 6.28947 2.61569 3.01316 5.13078C1.68421 9.95976 0.934211 14.8692 0.894737 19.8793C0.842105 24.8491 1.51316 29.9396 3 35.1308C6.42105 37.4044 9.8421 38.5714 13.2632 38.6318V40C9.67105 39.9396 6.07895 38.7123 2.48684 36.2777L2.25 35.9356C0.723684 30.7042 0.0131579 25.5533 0 20.503V20.1408C0 20.0402 0 19.9598 0 19.8592C0.0394737 14.6076 0.842105 9.43662 2.25 4.3662L2.46053 4.02414Z" fill="#003399"/>
<path fill-rule="evenodd" clip-rule="evenodd" d="M13.501 31.167C13.3168 27.3239 13.4352 23.3199 12.6852 19.6579C11.9878 16.2374 9.34307 14.2857 9.29044 10.5231C9.23781 7.58551 10.6983 4.1851 13.4352 4.1851C16.001 4.16498 17.5931 7.02213 17.7773 10.2012C18.001 13.8833 15.0799 16.3581 14.3168 19.8591C13.5273 23.4406 13.751 27.4044 13.501 31.167Z" fill="#003399"/>
<path fill-rule="evenodd" clip-rule="evenodd" d="M14.5138 30.2414C14.4085 26.9014 14.4085 23.7022 15.0138 20.8652C15.6848 17.6458 17.0796 14.9295 19.2111 14.0442C20.6717 13.4406 22.8164 16.0563 22.4743 18.7324C22.1848 20.8853 20.7769 23.4205 18.5138 23.7022C17.4611 23.843 17.0138 25.1307 16.3559 25.8752C19.3033 25.4326 21.2111 23.6619 22.5401 21.8108C22.7375 23.3802 22.869 26.0161 22.0664 26.9215C20.4875 28.6317 19.0269 27.2434 17.1717 28.0482C16.1322 28.511 15.4875 29.5171 14.5138 30.2414Z" fill="#003399"/>
<path fill-rule="evenodd" clip-rule="evenodd" d="M12.5008 30.2414C12.6192 26.9014 12.6061 23.7022 12.014 20.8652C11.3429 17.6458 9.94816 14.9295 7.81658 14.0442C6.35606 13.4406 4.19816 16.0563 4.55343 18.7324C4.8429 20.8853 6.25079 23.4205 8.51395 23.7022C9.55343 23.843 10.014 25.1307 10.6718 25.8752C7.71132 25.4326 5.81658 23.6619 4.48764 21.8108C4.29027 23.3802 4.15869 26.0161 4.96132 26.9215C6.54027 28.6317 8.00079 27.2434 9.85606 28.0482C10.8955 28.511 11.5271 29.5171 12.5008 30.2414Z" fill="#003399"/>
<path fill-rule="evenodd" clip-rule="evenodd" d="M19.5139 35.2112V34.668L19.777 34.5674L19.5139 33.9638V32.9577L20.6981 35.4728L20.277 35.6338L19.9876 35.01L19.5139 35.2112ZM19.5139 32.9577V33.9638L19.3297 33.5613L19.2507 34.7686L19.5139 34.668V35.2112L19.2113 35.3118L19.1586 36.0563L18.7376 36.2173L19.0139 32.9376L19.4349 32.7766L19.5139 32.9577ZM15.5928 36.9617V36.4386H15.6849C15.8297 36.4185 15.9218 36.3984 15.9613 36.3782C16.0139 36.3581 16.0665 36.2978 16.0928 36.2374C16.1323 36.1569 16.1455 36.0764 16.1455 35.9758C16.1323 35.8752 16.1192 35.7947 16.0797 35.7344C16.0534 35.674 16.0007 35.6338 15.9481 35.6137C15.8955 35.5935 15.777 35.5935 15.5928 35.6137V35.0905C15.6981 35.0905 15.7639 35.0704 15.7902 35.0704C15.856 35.0503 15.9086 34.9899 15.9481 34.9295C15.9876 34.8692 16.0007 34.7887 15.9876 34.6881C15.9876 34.5875 15.9613 34.507 15.9218 34.4668C15.8955 34.4064 15.8428 34.3662 15.7639 34.3662C15.7376 34.3662 15.6849 34.3662 15.5928 34.3863V33.8632C15.7376 33.843 15.8428 33.843 15.9086 33.8632C15.9876 33.8632 16.0665 33.9034 16.1323 33.9638C16.1981 34.004 16.2507 34.0845 16.3034 34.1851C16.3428 34.2857 16.3692 34.4064 16.3823 34.5473C16.3955 34.6881 16.3692 34.8289 16.3297 34.9497C16.2902 35.0704 16.2244 35.171 16.1323 35.2515C16.2639 35.2917 16.3692 35.3722 16.4349 35.4929C16.5139 35.6137 16.5534 35.7545 16.5665 35.9356C16.5665 36.0764 16.5534 36.2173 16.527 36.3581C16.4876 36.499 16.4349 36.5996 16.3692 36.7002C16.2902 36.7807 16.2113 36.841 16.106 36.8813C16.0402 36.9014 15.8692 36.9215 15.6192 36.9617H15.5928ZM18.0797 35.2716L18.4876 35.3521C18.4613 35.6941 18.3955 35.9758 18.277 36.177C18.1586 36.3581 17.9876 36.499 17.777 36.5593C17.5139 36.6197 17.277 36.5392 17.0797 36.3179C16.8692 36.0764 16.7507 35.7344 16.6849 35.2515C16.6323 34.7485 16.6718 34.3259 16.8165 34.004C16.9481 33.6821 17.1586 33.4809 17.4349 33.4004C17.6849 33.34 17.8823 33.4004 18.0665 33.5815C18.1718 33.6821 18.2639 33.843 18.3297 34.0845L17.9481 34.3259C17.9086 34.1851 17.8428 34.0644 17.7639 34.004C17.6718 33.9235 17.5797 33.9034 17.4744 33.9235C17.3297 33.9638 17.2244 34.0845 17.1455 34.2656C17.0665 34.4668 17.0534 34.7283 17.0928 35.0905C17.1455 35.4728 17.2244 35.7344 17.3297 35.8752C17.4349 36.0161 17.5665 36.0764 17.7113 36.0362C17.8165 35.9959 17.8955 35.9155 17.9613 35.7947C18.027 35.674 18.0665 35.4929 18.0797 35.2716ZM15.5928 33.8632V34.3863C15.5402 34.3863 15.4876 34.4064 15.4218 34.4064L15.1849 34.4467L15.2244 35.1509L15.5007 35.1106C15.527 35.1106 15.5665 35.1106 15.5928 35.0905V35.6137C15.5928 35.6137 15.5928 35.6137 15.5797 35.6137L15.2639 35.6539L15.3034 36.4788L15.5928 36.4386V36.9617L14.9349 37.0623L14.7507 33.9839L15.5534 33.8833C15.5665 33.8632 15.5797 33.8632 15.5928 33.8632ZM13.0534 35.8953V35.3722C13.1455 35.3722 13.1981 35.3521 13.2376 35.332C13.2902 35.3118 13.3297 35.2515 13.3692 35.1911C13.3955 35.1106 13.4086 35.0302 13.4086 34.9497C13.4218 34.8289 13.3955 34.7485 13.356 34.668C13.3165 34.5875 13.2639 34.5473 13.1981 34.5271C13.1586 34.5271 13.1192 34.507 13.0534 34.507V33.9839C13.2507 33.9839 13.3692 34.004 13.4349 34.0442C13.5534 34.0845 13.6455 34.1851 13.7244 34.346C13.8034 34.507 13.8428 34.7082 13.8297 34.9497C13.8297 35.1308 13.8034 35.2917 13.7639 35.4326C13.7113 35.5533 13.6586 35.6539 13.5928 35.7344C13.5139 35.7947 13.4481 35.835 13.3692 35.8752C13.2902 35.8953 13.1849 35.8953 13.0534 35.8953ZM13.0534 33.9839V34.507C13.0139 34.507 12.9613 34.507 12.8955 34.507L12.6981 34.4869V35.3722H12.9086C12.9613 35.3722 13.0139 35.3722 13.0534 35.3722V35.8953C13.0271 35.8953 12.9876 35.8953 12.9481 35.8953H12.6849L12.6718 37.0623L12.2639 37.0422L12.3034 33.9638L12.9481 33.9839C12.9876 33.9839 13.0271 33.9839 13.0534 33.9839ZM9.25073 35.5935V34.6479C9.36916 34.6881 9.4481 34.6881 9.48758 34.6881C9.54021 34.668 9.57968 34.6479 9.61916 34.5875C9.64547 34.5271 9.67179 34.4668 9.68494 34.3662C9.6981 34.2656 9.68494 34.1851 9.65863 34.1046C9.63231 34.0241 9.57968 33.9839 9.51389 33.9436C9.48758 33.9235 9.39547 33.9034 9.25073 33.8632V33.34L9.42179 33.3803C9.63231 33.4406 9.77705 33.501 9.86916 33.5815C9.96126 33.6619 10.0271 33.7827 10.0665 33.9436C10.106 34.0845 10.1192 34.2656 10.0928 34.4467C10.0665 34.668 10.0007 34.8491 9.89547 34.9698C9.80337 35.0905 9.65863 35.1509 9.47442 35.1509C9.55337 35.2515 9.61916 35.3521 9.65863 35.4527C9.71126 35.5734 9.76389 35.7545 9.82968 36.0161L10.0007 36.6801L9.52705 36.5392L9.31652 35.7947C9.29021 35.7344 9.27705 35.6539 9.25073 35.5935ZM10.4086 33.6821L10.8034 33.7424L10.7113 35.4124C10.6981 35.674 10.6981 35.8551 10.6981 35.9155C10.7113 36.0563 10.7507 36.1569 10.8034 36.2374C10.8692 36.338 10.9481 36.3782 11.0665 36.3984C11.1849 36.4185 11.277 36.3782 11.3297 36.3179C11.3955 36.2575 11.4349 36.177 11.4613 36.0764C11.4744 35.9758 11.4876 35.7947 11.5007 35.5533L11.5928 33.843L12.0007 33.9034L11.9086 35.5131C11.8955 35.8953 11.8692 36.1569 11.8297 36.2978C11.8034 36.4386 11.7507 36.5795 11.6981 36.6599C11.6323 36.7605 11.5402 36.841 11.4349 36.8813C11.3428 36.9416 11.2113 36.9416 11.0534 36.9215C10.856 36.9014 10.7113 36.841 10.6192 36.7605C10.527 36.6801 10.4481 36.5794 10.3955 36.4788C10.3428 36.3581 10.3165 36.2374 10.3034 36.1167C10.2902 35.9356 10.2902 35.674 10.3034 35.332L10.4086 33.6821ZM7.21126 34.5875L7.29021 34.0845L8.14547 34.4265L7.93495 35.6137C7.82968 35.7143 7.6981 35.7746 7.51389 35.7947C7.34284 35.8149 7.18495 35.7947 7.02705 35.7344C6.81653 35.6539 6.64547 35.5131 6.52705 35.332C6.39547 35.1308 6.31653 34.8893 6.27705 34.6277C6.25074 34.346 6.25074 34.0644 6.30337 33.7827C6.356 33.4809 6.4481 33.2193 6.57968 32.998C6.6981 32.7968 6.856 32.676 7.04021 32.6157C7.18495 32.5553 7.356 32.5754 7.54021 32.6559C7.77705 32.7565 7.96126 32.8974 8.06652 33.1187C8.17179 33.3199 8.22442 33.5815 8.21126 33.8632L7.80337 33.8229C7.80337 33.6619 7.77705 33.5211 7.71126 33.4004C7.64547 33.2998 7.56652 33.1992 7.4481 33.1589C7.27705 33.0986 7.13231 33.1187 7.00074 33.2394C6.86916 33.3601 6.77705 33.6016 6.71126 33.9235C6.64547 34.2857 6.65863 34.5674 6.72442 34.7887C6.80337 35.01 6.92179 35.1509 7.07968 35.2112C7.17179 35.2515 7.25073 35.2515 7.34284 35.2515C7.43495 35.2314 7.51389 35.1911 7.59284 35.1509L7.65863 34.7686L7.21126 34.5875ZM9.25073 33.34L8.56652 33.1589L8.22442 36.1972L8.61916 36.2978L8.76389 35.0302L8.856 35.0503C8.9481 35.0704 9.01389 35.1106 9.05337 35.1308C9.09284 35.171 9.11916 35.2314 9.15863 35.2917C9.17179 35.3521 9.21126 35.4527 9.25073 35.5935V34.6479C9.21126 34.6479 9.17179 34.6277 9.11916 34.6277L8.82968 34.5473L8.90863 33.7827L9.22442 33.8632C9.23758 33.8632 9.25073 33.8632 9.25073 33.8632V33.34Z" fill="#003399"/>
<path fill-rule="evenodd" clip-rule="evenodd" d="M71.9605 29.5775V23.9034H73.5921V13.9235L71.9605 18.9135V6.45875H78.3684L80 35.1509H73.5921V29.5775H71.9605ZM71.9605 6.45875V18.9135L70.3289 23.9034H71.9605V29.5775H68.8816L67.6184 34.8491H63.6447V28.2897L68.0789 13.662H67.1711L69.6974 6.45875H71.9605ZM63.6447 16.0161L65.6316 8.81288L63.6447 7.12274V16.0161ZM47.8421 13.2596C47.9342 12.4346 47.9342 11.6298 47.8421 10.8652V13.2596ZM63.6447 7.12274V16.0161L63.3816 16.9819C59.4605 12.6962 53.6711 16.5996 53.3421 21.1268C53.0132 25.8551 55.3684 29.6781 61.3816 26.8209L59.3158 35.2716C51.3816 36.6197 48.3026 31.8109 47.8421 26.1972V23.0181C47.9605 21.5493 48.2105 20.1207 48.5526 18.7928C52.4605 3.94366 58.8026 7.2837 61.2105 7.00201L61.5658 5.35211L63.6447 7.12274ZM63.6447 28.2897L61.6579 34.8491H63.6447V28.2897ZM40.7105 34.668C44.9605 33.3803 49.1316 25.5734 44.9474 19.3561C46.5789 18.0282 47.5921 15.6338 47.8421 13.2596V10.8652C47.5526 8.39034 46.3026 6.37827 43.9474 6.31791L40.7105 6.2173V11.7304H42.0526C43.4868 11.7304 43.3026 17.4044 41.5132 17.4044H40.7105V21.7505C42.6447 22.3139 41.9605 26.4185 40.7105 27.6861V34.668ZM47.8421 23.0181V26.1972C47.7632 25.1509 47.7632 24.0845 47.8421 23.0181ZM35.1053 6.03622L32.4868 13.8028L33.6579 13.662L30.5 34.8491H39.5395C39.9342 34.8491 40.3158 34.7887 40.7105 34.668V27.6861C40.4868 27.9276 40.2368 28.0684 39.9868 28.0684H36.7368L37.8158 21.6901H40.25C40.4211 21.6901 40.5789 21.7103 40.7105 21.7505V17.4044H38.4474L39.3553 11.7304H40.7105V6.2173L35.1053 6.03622Z" fill="#003399"/>
</svg>